<?xml version="1.0" encoding="UTF-8" standalone="no"?>
<svg
   xmlns:dc="http://purl.org/dc/elements/1.1/"
   xmlns:cc="http://creativecommons.org/ns#"
   xmlns:rdf="http://www.w3.org/1999/02/22-rdf-syntax-ns#"
   xmlns:svg="http://www.w3.org/2000/svg"
   xmlns="http://www.w3.org/2000/svg"
   xmlns:sodipodi="http://sodipodi.sourceforge.net/DTD/sodipodi-0.dtd"
   xmlns:inkscape="http://www.inkscape.org/namespaces/inkscape"
   version="1.0"
   width="824.28766pt"
   height="823.60504pt"
   viewBox="0 0 824.28766 823.60504"
   preserveAspectRatio="xMidYMid meet"
   id="svg78"
   sodipodi:docname="logo.svg"
   inkscape:export-filename="F:\Proggen\projects\crime-ai-web\public\favicon.ico.png"
   inkscape:export-xdpi="40"
   inkscape:export-ydpi="40"
   inkscape:version="1.0.2 (e86c870879, 2021-01-15, custom)">
  <metadata
     id="metadata84">
    <rdf:RDF>
      <cc:Work
         rdf:about="">
        <dc:format>image/svg+xml</dc:format>
        <dc:type
           rdf:resource="http://purl.org/dc/dcmitype/StillImage" />
      </cc:Work>
    </rdf:RDF>
  </metadata>
  <defs
     id="defs82" />
  <sodipodi:namedview
     pagecolor="#ffffff"
     bordercolor="#666666"
     borderopacity="1"
     objecttolerance="10"
     gridtolerance="10"
     guidetolerance="10"
     inkscape:pageopacity="0"
     inkscape:pageshadow="2"
     inkscape:window-width="1439"
     inkscape:window-height="953"
     id="namedview80"
     showgrid="false"
     inkscape:zoom="0.62255859"
     inkscape:cx="549.547"
     inkscape:cy="549.01877"
     inkscape:window-x="224"
     inkscape:window-y="0"
     inkscape:window-maximized="0"
     inkscape:current-layer="svg78"
     inkscape:document-rotation="0" />
  <g
     transform="matrix(0.09795219,0,0,-0.09795219,-89.355286,913.28007)"
     fill="#dc3545"
     stroke="none"
     id="g76">
    <path
       d="M 4815,9234 C 3841,9157 2971,8766 2246,8079 2138,7976 1940,7751 1823,7598 1401,7041 1117,6350 1030,5664 c -33,-255 -41,-624 -20,-874 69,-806 363,-1566 849,-2190 539,-692 1290,-1203 2114,-1440 163,-47 474,-111 657,-135 166,-22 609,-31 805,-16 436,33 892,143 1275,306 820,349 1500,939 1949,1690 285,478 471,1003 545,1540 37,260 48,685 26,940 -118,1370 -931,2604 -2155,3269 -433,235 -957,401 -1460,461 -134,17 -671,29 -800,19 z m 545,-624 C 6458,8528 7440,7951 8045,7030 8576,6223 8749,5229 8520,4303 8360,3651 8042,3097 7559,2625 6979,2059 6261,1723 5450,1639 c -175,-19 -538,-16 -710,5 -887,106 -1669,519 -2259,1192 -387,441 -670,1013 -786,1586 -119,592 -88,1195 92,1753 233,725 695,1352 1328,1804 641,457 1465,689 2245,631 z"
       id="path54" />
    <path
       d="m 4943,8029 c -126,-11 -167,-24 -197,-60 -36,-43 -36,-115 -1,-158 41,-48 75,-54 209,-36 198,26 379,17 614,-31 156,-31 288,-73 422,-135 59,-27 119,-49 134,-49 80,0 138,81 116,161 -14,51 -43,73 -163,123 -368,155 -760,218 -1134,185 z"
       id="path56" />
    <path
       d="m 4578,7585 c -415,-59 -719,-197 -1015,-461 -119,-107 -141,-189 -67,-254 29,-25 43,-30 85,-30 49,0 51,1 147,93 213,201 450,322 747,382 223,45 564,50 807,11 613,-99 1061,-300 1383,-620 114,-113 131,-126 178,-126 77,0 130,52 130,126 0,51 -19,80 -120,174 -333,311 -673,490 -1178,620 -270,69 -442,92 -740,96 -184,2 -288,-1 -357,-11 z"
       id="path58" />
    <path
       d="m 4915,7154 c -276,-30 -505,-94 -740,-209 -229,-112 -396,-235 -581,-427 -275,-286 -459,-668 -519,-1073 -8,-55 -21,-208 -30,-340 -9,-132 -22,-297 -29,-367 -16,-149 -13,-169 25,-208 79,-78 198,-30 213,87 8,66 33,381 46,593 13,204 35,326 85,477 154,463 475,830 905,1037 248,119 476,175 750,183 193,6 310,-6 499,-52 113,-28 146,-25 189,15 32,30 46,92 29,132 -21,49 -48,68 -125,88 -153,40 -314,61 -497,65 -99,2 -198,1 -220,-1 z"
       id="path60" />
    <path
       d="m 6129,6804 c -55,-36 -75,-113 -44,-173 8,-17 61,-59 130,-105 375,-250 659,-697 759,-1196 22,-110 29,-128 55,-152 39,-35 87,-44 134,-25 80,34 88,95 38,300 -79,317 -220,618 -403,859 -129,170 -300,331 -472,443 -99,65 -152,78 -197,49 z"
       id="path62" />
    <path
       d="m 4980,6730 c -292,-41 -563,-162 -826,-372 -81,-64 -114,-107 -114,-151 0,-67 62,-127 132,-127 28,0 48,10 88,43 325,265 610,379 915,364 177,-9 330,-49 488,-128 214,-108 403,-274 535,-471 109,-163 164,-286 269,-592 101,-297 176,-439 302,-569 97,-102 230,-191 323,-217 102,-30 190,82 141,177 -16,31 -36,45 -106,80 -200,99 -308,254 -432,621 -127,380 -245,606 -420,805 -292,332 -697,530 -1110,542 -66,2 -149,0 -185,-5 z"
       id="path64" />
    <path
       d="m 5050,6220 c -270,-38 -499,-149 -686,-335 -102,-101 -153,-175 -224,-320 -83,-171 -121,-337 -140,-615 -24,-348 -73,-557 -176,-746 -83,-155 -173,-255 -303,-339 -64,-41 -204,-105 -231,-105 -29,0 -89,-42 -104,-74 -20,-43 -20,-69 0,-112 33,-69 106,-81 226,-38 232,83 408,219 542,415 100,149 160,147 225,-10 43,-101 109,-197 186,-270 107,-100 205,-137 337,-128 202,14 359,159 429,397 34,118 38,351 9,595 -13,105 -23,245 -24,312 -1,109 1,124 20,150 15,20 31,29 58,31 79,7 115,-50 140,-218 43,-304 24,-600 -56,-850 -57,-178 -136,-310 -258,-431 -135,-134 -274,-197 -410,-186 -143,12 -249,74 -395,232 -134,144 -172,150 -292,43 -132,-117 -226,-171 -408,-233 -104,-35 -122,-45 -142,-74 -28,-42 -30,-95 -3,-138 40,-66 98,-71 235,-23 107,38 228,98 307,151 115,79 148,77 244,-15 60,-58 66,-67 60,-92 -4,-16 -13,-35 -20,-42 -16,-16 -208,-71 -391,-113 -139,-32 -166,-47 -185,-105 -15,-43 1,-102 36,-135 55,-52 205,-21 719,148 520,171 675,250 856,441 240,250 354,584 366,1068 10,400 -37,619 -157,727 -83,74 -129,92 -240,92 -84,0 -101,-3 -145,-27 -182,-96 -222,-277 -160,-718 54,-393 8,-642 -135,-717 -214,-113 -430,211 -501,752 -20,152 -15,460 10,598 49,277 182,504 377,643 77,55 228,126 314,148 101,26 279,32 376,12 289,-58 530,-269 669,-584 24,-53 62,-158 84,-232 95,-309 134,-420 176,-503 121,-237 293,-418 508,-532 102,-55 257,-115 294,-115 70,0 130,76 117,146 -10,52 -50,88 -129,114 -154,50 -272,125 -395,250 -143,144 -199,258 -300,600 -109,371 -194,546 -352,730 -160,186 -389,322 -618,366 -96,19 -258,25 -340,14 z"
       id="path66" />
    <path
       d="m 3793,5905 c -37,-16 -70,-75 -127,-228 -64,-171 -87,-291 -111,-577 -27,-331 -60,-484 -129,-615 -40,-77 -153,-189 -240,-240 -86,-50 -109,-80 -109,-137 0,-54 23,-91 70,-113 50,-24 94,-14 177,41 197,131 316,285 392,507 32,93 60,276 79,506 24,290 54,430 135,625 22,53 40,108 40,123 0,41 -36,92 -75,109 -42,17 -61,17 -102,-1 z"
       id="path68" />
    <path
       d="m 5065,5730 c -330,-87 -550,-362 -612,-765 -18,-123 -13,-396 12,-530 26,-140 63,-293 84,-339 44,-100 179,-99 223,1 l 20,44 -32,102 c -98,320 -99,662 -1,912 82,213 261,345 467,345 114,0 172,-26 265,-119 114,-115 188,-268 254,-525 39,-155 55,-273 55,-416 0,-444 -163,-884 -436,-1179 -243,-264 -656,-479 -1084,-566 -47,-9 -97,-24 -112,-31 -60,-31 -78,-129 -33,-183 44,-52 77,-56 210,-26 244,55 437,124 658,237 512,261 837,663 973,1207 36,140 49,165 90,175 35,9 52,-3 172,-122 158,-157 379,-305 600,-403 111,-48 146,-47 199,6 28,28 33,40 33,78 0,67 -29,95 -173,164 -225,109 -389,225 -533,375 -191,200 -287,399 -419,872 -39,142 -100,281 -169,385 -59,88 -185,207 -263,249 -132,69 -306,90 -448,52 z"
       id="path70" />
    <path
       d="m 6143,3676 c -39,-18 -55,-42 -89,-136 -85,-239 -232,-459 -431,-650 -178,-170 -337,-273 -580,-376 -110,-47 -139,-63 -154,-88 -41,-67 -9,-159 64,-183 50,-17 118,5 302,95 240,118 426,253 600,434 147,152 274,326 332,455 33,75 48,91 90,99 29,5 47,-2 131,-52 125,-75 269,-148 332,-169 47,-16 52,-16 87,2 53,26 78,65 77,118 -1,72 -19,87 -206,178 -154,76 -268,144 -408,245 -53,38 -103,48 -147,28 z"
       id="path72" />
    <path
       d="m 6313,3059 c -37,-11 -56,-33 -126,-151 -69,-117 -151,-213 -265,-311 -52,-44 -98,-91 -103,-104 -23,-61 0,-132 51,-158 46,-24 91,-19 144,16 60,40 217,197 275,274 93,124 105,130 201,101 90,-27 167,32 157,122 -6,57 -28,78 -151,150 -112,66 -136,74 -183,61 z"
       id="path74" />
  </g>
</svg>
